# xmcd
#
# Track frame offsets:
#       150
#       19033
#       37291
#       56068
#       76423
#       85843
#       106358
#       125510
#       170413
#
# Disc length: 3292 seconds
#
# Revision: 1
# Processed by: cddbd v1.4PL0 Copyright (c) Steve Scherf et al.
# Submitted via: MusiCat 1.0
#
DISCID=720cda09
DTITLE=New Order - Retro - Disc 5 - Bonus Disc-Limited Edition
DYEAR=1900
DGENRE=
TTITLE0=Temptation (1998 Version)
TTITLE1=Transmission (Live 2002.01.20 Gold Coast, AU)
TTITLE2=Such A Good Thing (Original Version  )
TTITLE3=Best and Marsh (12" Version)
TTITLE4=Let's Go (Extract from Original Version)
TTITLE5=True Faith (Pink Noise Morel Edit)
TTITLE6=Run Wild (Steve Osborne Original Mix)
TTITLE7=The Perfect Kiss (Live Video Version)
TTITLE8=Elegia (Full Version)
EXTD=0\n\n\n
EXTT0=
EXTT1=
EXTT2=
EXTT3=
EXTT4=
EXTT5=
EXTT6=
EXTT7=
EXTT8=
PLAYORDER=
